<svg width="48" height="50" viewBox="0 0 48 50" fill="none" xmlns="http://www.w3.org/2000/svg">
<path d="M23.5664 0C24.0181 0 24.4698 0.0981932 24.8822 0.28476L43.372 8.1304C45.5322 9.0436 47.1426 11.1744 47.1328 13.7471C47.0837 23.4878 43.0774 41.3099 26.1587 49.4108C24.5189 50.1964 22.6139 50.1964 20.9741 49.4108C4.05543 41.3099 0.0491413 23.4878 4.46631e-05 13.7471C-0.00977466 11.1744 1.60059 9.0436 3.76085 8.1304L22.2605 0.28476C22.663 0.0981932 23.1147 0 23.5664 0ZM23.5664 6.55931V43.6764C37.1171 37.117 40.7601 22.5943 40.8484 13.8845L23.5664 6.55931Z" fill="white"/>
</svg>
