<svg width="39" height="50" viewBox="0 0 39 50" fill="none" xmlns="http://www.w3.org/2000/svg">
<path d="M30.9389 4.8545C31.4964 3.55976 31.0806 2.04767 29.9371 1.21601C28.7936 0.384361 27.2342 0.459965 26.1663 1.38612L1.97275 22.5555C1.02769 23.3871 0.687472 24.7197 1.13165 25.8915C1.57583 27.0634 2.7099 27.8573 3.96683 27.8573H14.5043L7.23674 44.8117C6.67916 46.1064 7.09498 47.6185 8.23851 48.4501C9.38203 49.2818 10.9414 49.2062 12.0093 48.28L36.2028 27.1107C37.1479 26.279 37.4881 24.9465 37.0439 23.7746C36.5998 22.6027 35.4752 21.8183 34.2088 21.8183H23.6713L30.9389 4.8545Z" fill="white"/>
</svg>
