<svg width="299" height="132" viewBox="0 0 299 132" fill="none" xmlns="http://www.w3.org/2000/svg">
<g filter="url(#filter0_d_40000224_584)">
<g opacity="0.9">
<path d="M130.481 75.6771V43.9117H136.713V75.6771H130.481ZM133.506 36.8931C132.175 36.8931 131.146 36.5502 130.42 35.8645C129.694 35.1787 129.331 34.2106 129.331 32.9602C129.331 31.7904 129.694 30.8425 130.42 30.1164C131.187 29.3904 132.215 29.0273 133.506 29.0273C134.837 29.0273 135.866 29.3702 136.592 30.0559C137.318 30.7417 137.681 31.7098 137.681 32.9602C137.681 34.13 137.298 35.0779 136.531 35.804C135.805 36.53 134.797 36.8931 133.506 36.8931Z" fill="#007CA7"/>
<path d="M147.865 75.6771V33.3232H154.4V69.3845H174.246V75.6771H147.865Z" fill="#007CA7"/>
<path d="M195.61 76.2821C192.504 76.2821 189.721 75.5762 187.261 74.1644C184.84 72.7123 182.924 70.756 181.513 68.2954C180.101 65.7945 179.395 62.9508 179.395 59.7641C179.395 56.5775 180.101 53.7539 181.513 51.2934C182.924 48.7925 184.84 46.8361 187.261 45.4243C189.721 43.9722 192.504 43.2461 195.61 43.2461C198.676 43.2461 201.419 43.9722 203.839 45.4243C206.3 46.8361 208.236 48.7925 209.648 51.2934C211.059 53.7539 211.765 56.5775 211.765 59.7641C211.765 62.9508 211.059 65.7945 209.648 68.2954C208.236 70.756 206.3 72.7123 203.839 74.1644C201.419 75.5762 198.676 76.2821 195.61 76.2821ZM195.61 70.5946C197.506 70.5946 199.2 70.1307 200.693 69.203C202.185 68.2349 203.355 66.9441 204.202 65.3306C205.049 63.6768 205.453 61.8213 205.412 59.7641C205.453 57.6666 205.049 55.8111 204.202 54.1976C203.355 52.5438 202.185 51.253 200.693 50.3253C199.2 49.3975 197.506 48.9336 195.61 48.9336C193.715 48.9336 192 49.4177 190.467 50.3858C188.975 51.3135 187.805 52.6043 186.958 54.2581C186.111 55.8716 185.708 57.7069 185.748 59.7641C185.708 61.8213 186.111 63.6768 186.958 65.3306C187.805 66.9441 188.975 68.2349 190.467 69.203C192 70.1307 193.715 70.5946 195.61 70.5946Z" fill="#007CA7"/>
<path d="M232.049 76.2821C229.104 76.2821 226.462 75.5561 224.123 74.1039C221.823 72.6518 219.988 70.6753 218.617 68.1744C217.285 65.6735 216.62 62.8701 216.62 59.7641C216.62 56.6582 217.285 53.8548 218.617 51.3539C219.988 48.853 221.823 46.8765 224.123 45.4243C226.462 43.9722 229.104 43.2461 232.049 43.2461C234.872 43.2461 237.434 43.831 239.733 45.0008C242.073 46.1302 243.847 47.6832 245.058 49.6597L241.609 53.8951C240.963 52.9674 240.136 52.1203 239.128 51.3539C238.12 50.5875 237.051 49.9824 235.921 49.5387C234.792 49.095 233.703 48.8731 232.654 48.8731C230.718 48.8731 228.983 49.3572 227.45 50.3253C225.958 51.253 224.768 52.5438 223.881 54.1976C222.993 55.8514 222.549 57.7069 222.549 59.7641C222.549 61.8213 223.013 63.6768 223.941 65.3306C224.869 66.9441 226.099 68.2349 227.632 69.203C229.165 70.1711 230.859 70.6551 232.714 70.6551C233.803 70.6551 234.852 70.4736 235.861 70.1106C236.909 69.7475 237.918 69.203 238.886 68.4769C239.854 67.7509 240.762 66.8634 241.609 65.8147L245.058 70.0501C243.767 71.8652 241.911 73.3577 239.491 74.5275C237.111 75.6972 234.63 76.2821 232.049 76.2821Z" fill="#007CA7"/>
<path d="M256.624 65.7542L256.321 58.9776L271.508 43.9117H279.918L256.624 65.7542ZM250.936 75.6771V30.903H257.168V75.6771H250.936ZM272.355 75.6771L260.375 61.7003L264.792 57.6464L280.342 75.6771H272.355Z" fill="#007CA7"/>
</g>
<g opacity="0.9">
<path d="M174.444 99.632C172.869 99.632 171.602 99.4304 170.644 99.027V97.2118C171.186 97.4135 171.766 97.5774 172.383 97.7034C173.014 97.8295 173.638 97.8925 174.255 97.8925C175.226 97.8925 175.951 97.7791 176.43 97.5522C176.921 97.3253 177.167 96.8715 177.167 96.1908C177.167 95.7748 177.066 95.4408 176.865 95.1887C176.663 94.9366 176.329 94.7223 175.862 94.5458C175.396 94.3567 174.753 94.1613 173.934 93.9596C172.623 93.6193 171.703 93.1907 171.173 92.6739C170.644 92.1445 170.379 91.4197 170.379 90.4995C170.379 89.428 170.77 88.5898 171.551 87.9847C172.333 87.3797 173.499 87.0771 175.049 87.0771C175.755 87.0771 176.417 87.1276 177.035 87.2284C177.665 87.3293 178.157 87.4427 178.51 87.5688V89.3839C177.552 89.0184 176.493 88.8356 175.333 88.8356C174.425 88.8356 173.72 88.9553 173.215 89.1948C172.711 89.4343 172.459 89.8692 172.459 90.4995C172.459 90.865 172.547 91.1613 172.724 91.3882C172.9 91.6151 173.203 91.8104 173.631 91.9743C174.073 92.1382 174.678 92.321 175.446 92.5226C176.442 92.7747 177.211 93.0773 177.753 93.4302C178.308 93.7706 178.692 94.1739 178.907 94.6403C179.134 95.0941 179.247 95.6109 179.247 96.1908C179.247 97.2622 178.85 98.1068 178.056 98.7245C177.262 99.3295 176.058 99.632 174.444 99.632Z" fill="#007CA7"/>
<path d="M181.245 99.443V87.2662H189.735V88.8734H183.306V92.5605H189.035V94.1487H183.306V97.8547H189.735V99.443H181.245Z" fill="#007CA7"/>
<path d="M197.167 99.632C195.162 99.632 193.643 99.0837 192.61 97.987C191.589 96.8904 191.078 95.4093 191.078 93.5437C191.078 92.2075 191.292 91.0604 191.721 90.1024C192.162 89.1318 192.83 88.3881 193.725 87.8713C194.62 87.3419 195.761 87.0771 197.148 87.0771C197.854 87.0771 198.496 87.1339 199.076 87.2473C199.669 87.3482 200.217 87.4868 200.721 87.6633V89.4596C200.217 89.2579 199.675 89.1066 199.095 89.0058C198.528 88.8923 197.929 88.8356 197.299 88.8356C195.786 88.8356 194.715 89.239 194.085 90.0457C193.467 90.8524 193.158 92.0184 193.158 93.5437C193.158 94.9681 193.498 96.0521 194.179 96.7958C194.86 97.527 195.912 97.8925 197.337 97.8925C197.917 97.8925 198.496 97.8484 199.076 97.7601C199.669 97.6593 200.223 97.508 200.74 97.3064V99.1215C200.236 99.2854 199.688 99.4114 199.095 99.4997C198.515 99.5879 197.872 99.632 197.167 99.632Z" fill="#007CA7"/>
<path d="M207.938 99.632C206.262 99.632 204.957 99.2287 204.024 98.4219C203.104 97.6152 202.644 96.4492 202.644 94.924V87.2662H204.705V94.8483C204.705 95.8694 204.982 96.632 205.537 97.1362C206.104 97.6404 206.904 97.8925 207.938 97.8925C208.959 97.8925 209.747 97.6404 210.302 97.1362C210.869 96.632 211.152 95.8694 211.152 94.8483V87.2662H213.194V94.924C213.194 96.4492 212.734 97.6152 211.814 98.4219C210.894 99.2287 209.602 99.632 207.938 99.632Z" fill="#007CA7"/>
<path d="M215.479 99.443V87.2662H221.076C222.437 87.2662 223.427 87.6192 224.044 88.3251C224.675 89.0184 224.99 89.9638 224.99 91.1613C224.99 92.0184 224.776 92.7495 224.347 93.3546C223.918 93.9596 223.301 94.3819 222.494 94.6214C222.721 94.7853 222.897 94.9618 223.023 95.1509C223.149 95.3399 223.275 95.592 223.402 95.9072L224.933 99.443H222.815L221.322 96.0395C221.183 95.7118 221.013 95.4786 220.811 95.3399C220.622 95.2013 220.294 95.1319 219.828 95.1319H217.54V99.443H215.479ZM217.54 93.468H220.528C221.271 93.468 221.857 93.2853 222.286 92.9197C222.715 92.5542 222.929 91.968 222.929 91.1613C222.929 89.636 222.191 88.8734 220.717 88.8734H217.54V93.468Z" fill="#007CA7"/>
<path d="M227.02 99.443V87.2662H235.509V88.8734H229.081V92.5605H234.81V94.1487H229.081V97.8547H235.509V99.443H227.02Z" fill="#007CA7"/>
</g>
<path d="M48.6955 55.4624L47.9675 102.546L60.7682 109.368L73.7958 103.016L73.0773 55.4624L60.5224 62.294L48.6955 55.4624Z" fill="white"/>
<path d="M17.8 37.8071L60.5226 62.2937L104.209 38.2773L61.2506 13.7998L17.8 37.8071Z" fill="#6AC5D6"/>
<path d="M17.8 37.8071L60.5226 62.2937L60.6077 38.2773L61.2506 13.7998L17.8 37.8071Z" fill="#8ACFDC"/>
<path d="M18.0457 37.3374L18.5278 85.5916L47.9675 102.546L48.6955 54.9925L18.0457 37.3374Z" fill="#41B6A2"/>
<path d="M103.727 37.8071L103.245 86.0613L73.7959 103.016L73.0774 55.4622L103.727 37.8071Z" fill="#0098CA"/>
<path d="M60.3996 48.6408C66.331 48.6408 71.1394 43.9517 71.1394 38.1676C71.1394 32.3834 66.331 27.6943 60.3996 27.6943C54.4683 27.6943 49.6599 32.3834 49.6599 38.1676C49.6599 43.9517 54.4683 48.6408 60.3996 48.6408Z" fill="white"/>
<path opacity="0.2" d="M49.4237 54.5215L18.5281 85.5908L47.9678 102.545L48.6957 54.9917L49.4237 54.5215Z" fill="#36B083"/>
<path opacity="0.2" d="M103.727 37.8071L103.245 86.0613L73.0774 55.4622L103.727 37.8071Z" fill="#0181B6"/>
</g>
<defs>
<filter id="filter0_d_40000224_584" x="4.95911e-05" y="-0.00019455" width="298.142" height="131.168" filterUnits="userSpaceOnUse" color-interpolation-filters="sRGB">
<feFlood flood-opacity="0" result="BackgroundImageFix"/>
<feColorMatrix in="SourceAlpha" type="matrix" values="0 0 0 0 0 0 0 0 0 0 0 0 0 0 0 0 0 0 127 0" result="hardAlpha"/>
<feOffset dy="4"/>
<feGaussianBlur stdDeviation="8.9"/>
<feComposite in2="hardAlpha" operator="out"/>
<feColorMatrix type="matrix" values="0 0 0 0 0 0 0 0 0 0 0 0 0 0 0 0 0 0 0.25 0"/>
<feBlend mode="normal" in2="BackgroundImageFix" result="effect1_dropShadow_40000224_584"/>
<feBlend mode="normal" in="SourceGraphic" in2="effect1_dropShadow_40000224_584" result="shape"/>
</filter>
</defs>
</svg>
