<svg width="50" height="50" viewBox="0 0 50 50" fill="none" xmlns="http://www.w3.org/2000/svg">
<path d="M34.375 25C34.375 27.168 34.2578 29.2578 34.0527 31.25H15.9473C15.7324 29.2578 15.625 27.168 15.625 25C15.625 22.832 15.7422 20.7422 15.9473 18.75H34.0527C34.2676 20.7422 34.375 22.832 34.375 25ZM37.1875 18.75H49.209C49.7266 20.752 50 22.8418 50 25Cnan nan 49.7266 29.248 49.209 31.25H37.1875C37.3926 29.2383 37.5 27.1484 37.5 25Cnan nan 37.3926 20.7617 37.1875 18.75ZM48.1836 15.625H36.7871C35.8105 9.38477 33.877 4.16016 31.3867 0.820312C39.0332 2.8418 45.2539 8.38867 48.1738 15.625H48.1836ZM33.623 15.625H16.377C16.9727 12.0703 17.8906 8.92578 19.0137 6.37695C20.0391 4.07227 21.1816 2.40234 22.2852 1.34766C23.3789 0.3125 24.2871 0 25 0C25.7129 0 26.6211 0.3125 27.7148 1.34766C28.8184 2.40234 29.9609 4.07227 30.9863 6.37695C32.1191 8.91602 33.0273 12.0605 33.623 15.625ZM13.2129 15.625H1.81641C4.74609 8.38867 10.957 2.8418 18.6133 0.820312C16.123 4.16016 14.1895 9.38477 13.2129 15.625ZM0.791016 18.75H12.8125C12.6074 20.7617 12.5 22.8516 12.5 25Cnan nan 12.6074 29.2383 12.8125 31.25H0.791016C0.273438 29.248 0 27.1582 0 25C0 22.8418 0.273438 20.752 0.791016 18.75ZM19.0137 43.6133C17.8809 41.0742 16.9727 37.9297 16.377 34.375H33.623C33.0273 37.9297 32.1094 41.0742 30.9863 43.6133C29.9609 45.918 28.8184 47.5879 27.7148 48.6426C26.6211 49.6875 25.7129 50 25 50C24.2871 50 23.3789 49.6875 22.2852 48.6523C21.1816 47.5977 20.0391 45.9277 19.0137 43.623V43.6133ZM13.2129 34.375C14.1895 40.6152 16.123 45.8398 18.6133 49.1797C10.957 47.1582 4.74609 41.6113 1.81641 34.375H13.2129ZM48.1836 34.375C45.2539 41.6113 39.043 47.1582 31.3965 49.1797C33.8867 45.8398 35.8105 40.6152 36.7969 34.375H48.1836Z" fill="white"/>
</svg>
