<svg preserveAspectRatio="xMidYMid meet" overflow="visible" style="display: block;" viewBox="0 0 151.01 70.6047" fill="none" xmlns="http://www.w3.org/2000/svg">
<g id="Group 13">
<g id="iLock" opacity="0.9">
<path d="M1.14963 46.6499V14.8845H7.3817V46.6499H1.14963ZM4.17491 7.86589C2.84379 7.86589 1.81519 7.52302 1.08913 6.83729C0.363062 6.15157 2.91511e-05 5.18348 2.91511e-05 3.93303C2.91511e-05 2.76326 0.363062 1.81534 1.08913 1.08927C1.85553 0.363208 2.88412 0.000174907 4.17491 0.000174907C5.50603 0.000174907 6.53462 0.34304 7.26069 1.02877C7.98675 1.7145 8.34979 2.68258 8.34979 3.93303C8.34979 5.1028 7.96659 6.05072 7.20018 6.77679C6.47412 7.50286 5.46569 7.86589 4.17491 7.86589Z" fill="var(--fill-0, white)"/>
<path d="M18.5341 46.6499V4.29606H25.0687V40.3573H44.9145V46.6499H18.5341Z" fill="var(--fill-0, white)"/>
<path d="M66.2791 47.255C63.1731 47.255 60.3899 46.5491 57.9293 45.1373C55.5091 43.6851 53.5931 41.7288 52.1813 39.2682C50.7695 36.7673 50.0636 33.9236 50.0636 30.737C50.0636 27.5503 50.7695 24.7268 52.1813 22.2662C53.5931 19.7653 55.5091 17.809 57.9293 16.3972C60.3899 14.945 63.1731 14.219 66.2791 14.219C69.3447 14.219 72.0876 14.945 74.5078 16.3972C76.9684 17.809 78.9045 19.7653 80.3163 22.2662C81.7281 24.7268 82.434 27.5503 82.434 30.737C82.434 33.9236 81.7281 36.7673 80.3163 39.2682C78.9045 41.7288 76.9684 43.6851 74.5078 45.1373C72.0876 46.5491 69.3447 47.255 66.2791 47.255ZM66.2791 41.5674C68.1749 41.5674 69.8691 41.1036 71.3615 40.1758C72.854 39.2077 74.0238 37.9169 74.8708 36.3035C75.7179 34.6497 76.1213 32.7942 76.081 30.737C76.1213 28.6394 75.7179 26.7839 74.8708 25.1705C74.0238 23.5166 72.854 22.2259 71.3615 21.2981C69.8691 20.3704 68.1749 19.9065 66.2791 19.9065C64.3832 19.9065 62.6689 20.3905 61.1361 21.3586C59.6436 22.2864 58.4739 23.5771 57.6268 25.231C56.7797 26.8444 56.3763 28.6798 56.4167 30.737C56.3763 32.7942 56.7797 34.6497 57.6268 36.3035C58.4739 37.9169 59.6436 39.2077 61.1361 40.1758C62.6689 41.1036 64.3832 41.5674 66.2791 41.5674Z" fill="var(--fill-0, white)"/>
<path d="M102.718 47.255C99.773 47.255 97.1309 46.5289 94.7913 45.0768C92.4921 43.6246 90.6568 41.6481 89.2853 39.1472C87.9542 36.6463 87.2887 33.8429 87.2887 30.737C87.2887 27.631 87.9542 24.8276 89.2853 22.3267C90.6568 19.8258 92.4921 17.8493 94.7913 16.3972C97.1309 14.945 99.773 14.219 102.718 14.219C105.541 14.219 108.103 14.8039 110.402 15.9736C112.741 17.1031 114.516 18.656 115.726 20.6325L112.277 24.8679C111.632 23.9402 110.805 23.0931 109.797 22.3267C108.788 21.5603 107.719 20.9552 106.59 20.5115C105.46 20.0678 104.371 19.846 103.323 19.846C101.386 19.846 99.6519 20.33 98.1191 21.2981C96.6267 22.2259 95.4367 23.5166 94.5493 25.1705C93.6619 26.8243 93.2182 28.6798 93.2182 30.737C93.2182 32.7942 93.6821 34.6497 94.6098 36.3035C95.5376 37.9169 96.7679 39.2077 98.3007 40.1758C99.8335 41.1439 101.528 41.628 103.383 41.628C104.472 41.628 105.521 41.4464 106.529 41.0834C107.578 40.7204 108.587 40.1758 109.555 39.4498C110.523 38.7237 111.43 37.8363 112.277 36.7875L115.726 41.0229C114.435 42.8381 112.58 44.3305 110.16 45.5003C107.78 46.6701 105.299 47.255 102.718 47.255Z" fill="var(--fill-0, white)"/>
<path d="M127.292 36.727L126.99 29.9504L142.177 14.8845H150.587L127.292 36.727ZM121.605 46.6499V1.87585H127.837V46.6499H121.605ZM143.024 46.6499L131.044 32.6731L135.46 28.6193L151.01 46.6499H143.024Z" fill="var(--fill-0, white)"/>
</g>
<g id="SECURE" opacity="0.9">
<path d="M45.113 70.6047C43.5373 70.6047 42.2705 70.403 41.3125 69.9997V68.1845C41.8545 68.3862 42.4343 68.5501 43.052 68.6761C43.6823 68.8022 44.3062 68.8652 44.9239 68.8652C45.8945 68.8652 46.6193 68.7517 47.0983 68.5248C47.5899 68.298 47.8357 67.8442 47.8357 67.1635C47.8357 66.7475 47.7349 66.4135 47.5332 66.1614C47.3315 65.9092 46.9974 65.695 46.5311 65.5185C46.0647 65.3294 45.4218 65.134 44.6024 64.9323C43.2915 64.592 42.3713 64.1634 41.8419 63.6466C41.3125 63.1172 41.0477 62.3924 41.0477 61.4722C41.0477 60.4007 41.4385 59.5625 42.22 58.9574C43.0016 58.3524 44.1676 58.0498 45.718 58.0498C46.4239 58.0498 47.0857 58.1003 47.7033 58.2011C48.3336 58.3019 48.8252 58.4154 49.1782 58.5414V60.3566C48.2202 59.9911 47.1613 59.8083 46.0016 59.8083C45.094 59.8083 44.3881 59.928 43.8839 60.1675C43.3797 60.407 43.1276 60.8419 43.1276 61.4722C43.1276 61.8377 43.2159 62.134 43.3923 62.3609C43.5688 62.5877 43.8713 62.7831 44.2999 62.947C44.7411 63.1109 45.3462 63.2936 46.1151 63.4953C47.1109 63.7474 47.8798 64.05 48.4218 64.4029C48.9765 64.7433 49.3609 65.1466 49.5752 65.613C49.8021 66.0668 49.9156 66.5836 49.9156 67.1635C49.9156 68.2349 49.5185 69.0795 48.7244 69.6971C47.9302 70.3022 46.7264 70.6047 45.113 70.6047Z" fill="var(--fill-0, white)"/>
<path d="M51.9139 70.4156V58.2389H60.4036V59.8461H53.9749V63.5331H59.704V65.1214H53.9749V68.8274H60.4036V70.4156H51.9139Z" fill="var(--fill-0, white)"/>
<path d="M67.8352 70.6047C65.8309 70.6047 64.312 70.0564 63.2783 68.9597C62.2573 67.8631 61.7468 66.3819 61.7468 64.5164C61.7468 63.1802 61.9611 62.0331 62.3897 61.0751C62.8309 60.1045 63.4989 59.3608 64.3939 58.844C65.2889 58.3145 66.4297 58.0498 67.8163 58.0498C68.5222 58.0498 69.165 58.1066 69.7449 58.22C70.3373 58.3208 70.8856 58.4595 71.3899 58.636V60.4322C70.8856 60.2306 70.3436 60.0793 69.7638 59.9784C69.1965 59.865 68.5978 59.8083 67.9675 59.8083C66.4549 59.8083 65.3834 60.2116 64.7532 61.0184C64.1355 61.8251 63.8267 62.9911 63.8267 64.5164C63.8267 65.9408 64.167 67.0248 64.8477 67.7685C65.5284 68.4996 66.5809 68.8652 68.0053 68.8652C68.5852 68.8652 69.165 68.8211 69.7449 68.7328C70.3373 68.632 70.8919 68.4807 71.4088 68.279V70.0942C70.9046 70.2581 70.3562 70.3841 69.7638 70.4724C69.1839 70.5606 68.5411 70.6047 67.8352 70.6047Z" fill="var(--fill-0, white)"/>
<path d="M78.6066 70.6047C76.9301 70.6047 75.6255 70.2014 74.6927 69.3946C73.7725 68.5879 73.3124 67.4219 73.3124 65.8966V58.2389H75.3734V65.821C75.3734 66.842 75.6507 67.6047 76.2053 68.1089C76.7726 68.6131 77.573 68.8652 78.6066 68.8652C79.6277 68.8652 80.4155 68.6131 80.9701 68.1089C81.5374 67.6047 81.821 66.842 81.821 65.821V58.2389H83.8631V65.8966C83.8631 67.4219 83.403 68.5879 82.4828 69.3946C81.5626 70.2014 80.2705 70.6047 78.6066 70.6047Z" fill="var(--fill-0, white)"/>
<path d="M86.1477 70.4156V58.2389H91.7444C93.1058 58.2389 94.0953 58.5919 94.713 59.2978C95.3432 59.9911 95.6584 60.9365 95.6584 62.134C95.6584 62.9911 95.4441 63.7222 95.0155 64.3273C94.5869 64.9323 93.9693 65.3546 93.1625 65.5941C93.3894 65.758 93.5659 65.9345 93.692 66.1235C93.818 66.3126 93.9441 66.5647 94.0701 66.8799L95.6017 70.4156H93.484L91.9902 67.0122C91.8516 66.6845 91.6814 66.4513 91.4797 66.3126C91.2906 66.174 90.9629 66.1046 90.4965 66.1046H88.2086V70.4156H86.1477ZM88.2086 64.4407H91.1961C91.9398 64.4407 92.526 64.258 92.9545 63.8924C93.3831 63.5268 93.5974 62.9407 93.5974 62.134C93.5974 60.6087 92.86 59.8461 91.3852 59.8461H88.2086V64.4407Z" fill="var(--fill-0, white)"/>
<path d="M97.6882 70.4156V58.2389H106.178V59.8461H99.7492V63.5331H105.478V65.1214H99.7492V68.8274H106.178V70.4156H97.6882Z" fill="var(--fill-0, white)"/>
</g>
</g>
</svg>
