<svg width="297" height="130" viewBox="0 0 297 130" fill="none" xmlns="http://www.w3.org/2000/svg">
<g filter="url(#filter0_d_80_55)">
<g opacity="0.9">
<path d="M129.681 74.8771V43.1117H135.913V74.8771H129.681ZM132.706 36.093C131.375 36.093 130.346 35.7502 129.62 35.0645C128.894 34.3787 128.531 33.4106 128.531 32.1602C128.531 30.9904 128.894 30.0425 129.62 29.3164C130.387 28.5904 131.415 28.2273 132.706 28.2273C134.037 28.2273 135.066 28.5702 135.792 29.2559C136.518 29.9417 136.881 30.9097 136.881 32.1602C136.881 33.33 136.498 34.2779 135.731 35.0039C135.005 35.73 133.997 36.093 132.706 36.093Z" fill="white"/>
<path d="M147.065 74.8771V32.5232H153.6V68.5845H173.446V74.8771H147.065Z" fill="white"/>
<path d="M194.81 75.4821C191.704 75.4821 188.921 74.7762 186.461 73.3644C184.04 71.9123 182.124 69.956 180.713 67.4954C179.301 64.9945 178.595 62.1507 178.595 58.9641C178.595 55.7775 179.301 52.9539 180.713 50.4934C182.124 47.9925 184.04 46.0361 186.461 44.6243C188.921 43.1722 191.704 42.4461 194.81 42.4461C197.876 42.4461 200.619 43.1722 203.039 44.6243C205.5 46.0361 207.436 47.9925 208.848 50.4934C210.259 52.9539 210.965 55.7775 210.965 58.9641C210.965 62.1507 210.259 64.9945 208.848 67.4954C207.436 69.956 205.5 71.9123 203.039 73.3644C200.619 74.7762 197.876 75.4821 194.81 75.4821ZM194.81 69.7946C196.706 69.7946 198.4 69.3307 199.893 68.403C201.385 67.4349 202.555 66.1441 203.402 64.5306C204.249 62.8768 204.653 61.0213 204.612 58.9641C204.653 56.8666 204.249 55.0111 203.402 53.3976C202.555 51.7438 201.385 50.453 199.893 49.5253C198.4 48.5975 196.706 48.1336 194.81 48.1336C192.915 48.1336 191.2 48.6177 189.667 49.5858C188.175 50.5135 187.005 51.8043 186.158 53.4581C185.311 55.0716 184.908 56.9069 184.948 58.9641C184.908 61.0213 185.311 62.8768 186.158 64.5306C187.005 66.1441 188.175 67.4349 189.667 68.403C191.2 69.3307 192.915 69.7946 194.81 69.7946Z" fill="white"/>
<path d="M231.249 75.4821C228.304 75.4821 225.662 74.7561 223.323 73.3039C221.023 71.8518 219.188 69.8753 217.817 67.3744C216.486 64.8735 215.82 62.0701 215.82 58.9641C215.82 55.8582 216.486 53.0548 217.817 50.5539C219.188 48.053 221.023 46.0765 223.323 44.6243C225.662 43.1722 228.304 42.4461 231.249 42.4461C234.072 42.4461 236.634 43.031 238.933 44.2008C241.273 45.3302 243.047 46.8832 244.258 48.8597L240.809 53.0951C240.163 52.1673 239.336 51.3203 238.328 50.5539C237.32 49.7875 236.251 49.1824 235.121 48.7387C233.992 48.295 232.903 48.0731 231.854 48.0731C229.918 48.0731 228.183 48.5572 226.65 49.5253C225.158 50.453 223.968 51.7438 223.081 53.3976C222.193 55.0514 221.749 56.9069 221.749 58.9641C221.749 61.0213 222.213 62.8768 223.141 64.5306C224.069 66.1441 225.299 67.4349 226.832 68.403C228.365 69.3711 230.059 69.8551 231.914 69.8551C233.003 69.8551 234.052 69.6736 235.061 69.3106C236.109 68.9475 237.118 68.403 238.086 67.6769C239.054 66.9508 239.962 66.0634 240.809 65.0147L244.258 69.2501C242.967 71.0652 241.111 72.5577 238.691 73.7275C236.311 74.8972 233.83 75.4821 231.249 75.4821Z" fill="white"/>
<path d="M255.824 64.9542L255.521 58.1776L270.708 43.1117H279.118L255.824 64.9542ZM250.136 74.8771V30.103H256.368V74.8771H250.136ZM271.555 74.8771L259.575 60.9003L263.992 56.8464L279.542 74.8771H271.555Z" fill="white"/>
</g>
<g opacity="0.9">
<path d="M173.644 98.8319C172.069 98.8319 170.802 98.6302 169.844 98.2268V96.4117C170.386 96.6133 170.966 96.7772 171.583 96.9033C172.214 97.0293 172.837 97.0923 173.455 97.0923C174.426 97.0923 175.151 96.9789 175.63 96.752C176.121 96.5251 176.367 96.0713 176.367 95.3906C176.367 94.9747 176.266 94.6406 176.064 94.3885C175.863 94.1364 175.529 93.9221 175.062 93.7456C174.596 93.5566 173.953 93.3612 173.134 93.1595C171.823 92.8191 170.903 92.3906 170.373 91.8738C169.844 91.3443 169.579 90.6195 169.579 89.6993C169.579 88.6279 169.97 87.7896 170.751 87.1846C171.533 86.5795 172.699 86.277 174.249 86.277C174.955 86.277 175.617 86.3274 176.235 86.4283C176.865 86.5291 177.356 86.6425 177.709 86.7686V88.5838C176.751 88.2182 175.693 88.0354 174.533 88.0354C173.625 88.0354 172.919 88.1552 172.415 88.3947C171.911 88.6342 171.659 89.0691 171.659 89.6993C171.659 90.0649 171.747 90.3611 171.924 90.588C172.1 90.8149 172.403 91.0103 172.831 91.1742C173.272 91.338 173.877 91.5208 174.646 91.7225C175.642 91.9746 176.411 92.2771 176.953 92.6301C177.508 92.9704 177.892 93.3738 178.107 93.8402C178.333 94.294 178.447 94.8108 178.447 95.3906C178.447 96.4621 178.05 97.3066 177.256 97.9243C176.462 98.5294 175.258 98.8319 173.644 98.8319Z" fill="white"/>
<path d="M180.445 98.6428V86.4661H188.935V88.0733H182.506V91.7603H188.235V93.3486H182.506V97.0545H188.935V98.6428H180.445Z" fill="white"/>
<path d="M196.366 98.8319C194.362 98.8319 192.843 98.2836 191.81 97.1869C190.789 96.0902 190.278 94.6091 190.278 92.7435C190.278 91.4074 190.492 90.2603 190.921 89.3023C191.362 88.3317 192.03 87.5879 192.925 87.0711C193.82 86.5417 194.961 86.277 196.348 86.277C197.053 86.277 197.696 86.3337 198.276 86.4472C198.869 86.548 199.417 86.6867 199.921 86.8631V88.6594C199.417 88.4577 198.875 88.3064 198.295 88.2056C197.728 88.0922 197.129 88.0354 196.499 88.0354C194.986 88.0354 193.915 88.4388 193.284 89.2455C192.667 90.0523 192.358 91.2183 192.358 92.7435C192.358 94.1679 192.698 95.252 193.379 95.9957C194.06 96.7268 195.112 97.0923 196.537 97.0923C197.116 97.0923 197.696 97.0482 198.276 96.96C198.869 96.8592 199.423 96.7079 199.94 96.5062V98.3214C199.436 98.4852 198.887 98.6113 198.295 98.6995C197.715 98.7878 197.072 98.8319 196.366 98.8319Z" fill="white"/>
<path d="M207.138 98.8319C205.461 98.8319 204.157 98.4285 203.224 97.6218C202.304 96.815 201.844 95.649 201.844 94.1238V86.4661H203.905V94.0482C203.905 95.0692 204.182 95.8318 204.737 96.336C205.304 96.8402 206.104 97.0923 207.138 97.0923C208.159 97.0923 208.947 96.8402 209.501 96.336C210.069 95.8318 210.352 95.0692 210.352 94.0482V86.4661H212.394V94.1238C212.394 95.649 211.934 96.815 211.014 97.6218C210.094 98.4285 208.802 98.8319 207.138 98.8319Z" fill="white"/>
<path d="M214.679 98.6428V86.4661H220.276C221.637 86.4661 222.627 86.819 223.244 87.5249C223.875 88.2182 224.19 89.1636 224.19 90.3611C224.19 91.2183 223.975 91.9494 223.547 92.5544C223.118 93.1595 222.501 93.5818 221.694 93.8213C221.921 93.9851 222.097 94.1616 222.223 94.3507C222.349 94.5398 222.475 94.7919 222.601 95.107L224.133 98.6428H222.015L220.522 95.2394C220.383 94.9116 220.213 94.6784 220.011 94.5398C219.822 94.4011 219.494 94.3318 219.028 94.3318H216.74V98.6428H214.679ZM216.74 92.6679H219.727C220.471 92.6679 221.057 92.4851 221.486 92.1196C221.914 91.754 222.129 91.1679 222.129 90.3611C222.129 88.8359 221.391 88.0733 219.916 88.0733H216.74V92.6679Z" fill="white"/>
<path d="M226.219 98.6428V86.4661H234.709V88.0733H228.28V91.7603H234.01V93.3486H228.28V97.0545H234.709V98.6428H226.219Z" fill="white"/>
</g>
<path d="M47.8954 54.6625L47.1675 101.746L59.9682 108.568L72.9958 102.216L72.2773 54.6625L59.7224 61.494L47.8954 54.6625Z" fill="white"/>
<path d="M17 37.0073L59.7225 61.4939L103.409 37.4774L60.4505 13L17 37.0073Z" fill="#6AC5D6"/>
<path d="M17 37.0073L59.7226 61.4939L59.8076 37.4774L60.4505 13L17 37.0073Z" fill="#8ACFDC"/>
<path d="M17.2456 36.5378L17.7278 84.792L47.1675 101.746L47.8954 54.1929L17.2456 36.5378Z" fill="#41B6A2"/>
<path d="M102.927 37.0072L102.445 85.2615L72.9958 102.216L72.2773 54.6624L102.927 37.0072Z" fill="#0098CA"/>
<path d="M59.5996 47.8409C65.531 47.8409 70.3393 43.1519 70.3393 37.3677C70.3393 31.5835 65.531 26.8945 59.5996 26.8945C53.6682 26.8945 48.8599 31.5835 48.8599 37.3677C48.8599 43.1519 53.6682 47.8409 59.5996 47.8409Z" fill="white"/>
<path opacity="0.2" d="M48.6236 53.7216L17.728 84.7909L47.1677 101.745L47.8957 54.1918L48.6236 53.7216Z" fill="#36B083"/>
<path opacity="0.2" d="M102.927 37.0072L102.445 85.2615L72.2773 54.6624L102.927 37.0072Z" fill="#0181B6"/>
</g>
<defs>
<filter id="filter0_d_80_55" x="0" y="0" width="296.542" height="129.568" filterUnits="userSpaceOnUse" color-interpolation-filters="sRGB">
<feFlood flood-opacity="0" result="BackgroundImageFix"/>
<feColorMatrix in="SourceAlpha" type="matrix" values="0 0 0 0 0 0 0 0 0 0 0 0 0 0 0 0 0 0 127 0" result="hardAlpha"/>
<feOffset dy="4"/>
<feGaussianBlur stdDeviation="8.5"/>
<feComposite in2="hardAlpha" operator="out"/>
<feColorMatrix type="matrix" values="0 0 0 0 0 0 0 0 0 0 0 0 0 0 0 0 0 0 0.25 0"/>
<feBlend mode="normal" in2="BackgroundImageFix" result="effect1_dropShadow_80_55"/>
<feBlend mode="normal" in="SourceGraphic" in2="effect1_dropShadow_80_55" result="shape"/>
</filter>
</defs>
</svg>
