<svg preserveAspectRatio="xMidYMid meet" overflow="visible" style="display: block;" viewBox="0 0 86.4094 95.5682" fill="none" xmlns="http://www.w3.org/2000/svg">
<g id="Group 1">
<path id="Vector" d="M30.8954 41.6625L30.1675 88.7458L42.9682 95.5682L55.9958 89.216L55.2773 41.6625L42.7224 48.494L30.8954 41.6625Z" fill="var(--fill-0, white)"/>
<path id="Vector_2" d="M0 24.0073L42.7225 48.4939L86.4094 24.4774L43.4505 0L0 24.0073Z" fill="var(--fill-0, #6AC5D6)"/>
<path id="Vector_3" d="M0 24.0073L42.7226 48.4939L42.8076 24.4774L43.4505 0L0 24.0073Z" fill="var(--fill-0, #8ACFDC)"/>
<path id="Vector_4" d="M0.245605 23.5378L0.727759 71.792L30.1675 88.7464L30.8954 41.1929L0.245605 23.5378Z" fill="var(--fill-0, #41B6A2)"/>
<path id="Vector_5" d="M85.9272 24.0073L85.445 72.2615L55.9958 89.2159L55.2773 41.6624L85.9272 24.0073Z" fill="var(--fill-0, #0098CA)"/>
<path id="Vector_6" d="M42.5996 34.8409C48.531 34.8409 53.3393 30.1519 53.3393 24.3677C53.3393 18.5835 48.531 13.8945 42.5996 13.8945C36.6682 13.8945 31.8599 18.5835 31.8599 24.3677C31.8599 30.1519 36.6682 34.8409 42.5996 34.8409Z" fill="var(--fill-0, white)"/>
<path id="Vector_7" opacity="0.2" d="M31.6236 40.7216L0.728027 71.7909L30.1677 88.7453L30.8957 41.1918L31.6236 40.7216Z" fill="var(--fill-0, #36B083)"/>
<path id="Vector_8" opacity="0.2" d="M85.9272 24.0073L85.445 72.2615L55.2773 41.6624L85.9272 24.0073Z" fill="var(--fill-0, #0181B6)"/>
</g>
</svg>
