<svg width="218" height="103" viewBox="0 0 218 103" fill="none" xmlns="http://www.w3.org/2000/svg">
<g clip-path="url(#clip0_40000075_4104)">
<path d="M15.9914 101.874L14.4345 97.9444H6.58059L4.98898 101.874H0L8.38634 81.0791H12.7792L20.9803 101.874H15.9914ZM7.98121 94.2634H13.1265L10.5683 87.2835L7.98121 94.2634Z" fill="#6A8A82"/>
<path d="M22.7861 87.9667H27.2773V95.6354C27.2773 96.654 27.5378 97.4006 28.0586 97.881C28.539 98.3151 29.1583 98.535 29.9281 98.535C30.6978 98.535 31.3518 98.3151 31.8322 97.881C32.33 97.4006 32.5788 96.654 32.5788 95.6354V87.9667H37.0701V96.0695C37.0701 97.0244 36.9717 97.8521 36.7749 98.5466C36.5781 99.2411 36.1556 99.9009 35.5132 100.526C34.2862 101.73 32.4283 102.332 29.9339 102.332C27.4394 102.332 25.5468 101.73 24.3198 100.526C23.3012 99.5305 22.7919 98.1357 22.7919 96.3473V87.9609L22.7861 87.9667Z" fill="#6A8A82"/>
<path d="M47.9451 91.5841H45.1728V101.869H40.6816V91.5841H39.1247V87.9668H40.6816V83.4756H45.1728V87.9668H47.9451V91.5841Z" fill="#6A8A82"/>
<path d="M49.9998 101.875V79.1465H54.491V89.6222C55.0119 88.9798 55.5733 88.4994 56.1752 88.1868C56.9218 87.7933 57.8247 87.5965 58.8896 87.5965C60.5912 87.5965 61.905 88.0653 62.8195 88.9971C63.7339 89.9116 64.1911 91.2601 64.1911 93.0485V101.869H59.6999V94.7327C59.6999 93.361 59.451 92.435 58.9533 91.9604C58.5366 91.5437 57.9578 91.3353 57.2054 91.3353C56.453 91.3353 55.8858 91.5668 55.4286 92.0183C54.8035 92.6202 54.491 93.5867 54.491 94.9179V101.869H49.9998V101.875Z" fill="#6A8A82"/>
<path d="M81.2706 95.2304V95.6992H70.8875C70.8875 96.6542 71.1653 97.4471 71.7267 98.0664C72.265 98.6509 73.0347 98.9403 74.036 98.9403C74.7826 98.9403 75.3845 98.8072 75.8417 98.5352C76.1948 98.3499 76.5189 97.9622 76.8083 97.3834L81.0506 97.8175C80.5703 99.3338 79.679 100.497 78.371 101.307C77.225 101.996 75.7607 102.338 73.9781 102.338C71.611 102.338 69.7589 101.672 68.4277 100.341C67.0329 98.9461 66.3384 97.1635 66.3384 94.9815C66.3384 92.7996 67.0445 90.9475 68.4567 89.4948C69.7878 88.1636 71.5646 87.498 73.7871 87.498C76.1369 87.498 77.9774 88.1926 79.3028 89.5874C80.6108 90.9822 81.2648 92.8632 81.2648 95.2304H81.2706ZM71.0438 93.0195H77.1208C76.953 92.3539 76.652 91.8157 76.2179 91.3989C75.6565 90.8781 74.9504 90.6176 74.0997 90.6176C73.1852 90.6176 72.427 90.9186 71.8251 91.5205C71.4084 91.9546 71.1479 92.4581 71.0438 93.0137V93.0195Z" fill="#6A8A82"/>
<path d="M84.0718 101.875V87.9729H88.5631V89.6224C89.6222 88.2738 91.0576 87.5967 92.8633 87.5967C94.6691 87.5967 95.9192 88.0655 96.851 88.9973C97.7828 89.9291 98.2516 91.295 98.2516 93.0834V101.875H93.7604V94.7387C93.7604 93.3901 93.5115 92.4641 93.0138 91.9664C92.5971 91.5497 92.0241 91.3413 91.3006 91.3413C90.5077 91.3413 89.8884 91.5902 89.4312 92.0879C88.8467 92.6725 88.5573 93.5522 88.5573 94.7387V101.875H84.066H84.0718Z" fill="#6A8A82"/>
<path d="M109.138 91.5841H106.366V101.869H101.875V91.5841H100.318V87.9668H101.875V83.4756H106.366V87.9668H109.138V91.5841Z" fill="#6A8A82"/>
<path d="M111.772 83.8977C111.262 83.3884 111.008 82.7691 111.008 82.0456C111.008 81.3222 111.262 80.6971 111.772 80.1878C112.281 79.6785 112.9 79.4238 113.63 79.4238C114.359 79.4238 114.972 79.6785 115.482 80.1878C115.991 80.6971 116.246 81.3164 116.246 82.0456C116.246 82.7749 115.991 83.3942 115.482 83.8977C114.972 84.407 114.353 84.6617 113.63 84.6617C112.906 84.6617 112.281 84.407 111.772 83.8977ZM111.384 87.9664H115.875V101.868H111.384V87.9664Z" fill="#6A8A82"/>
<path d="M130.119 88.2794V92.3655C129.268 91.6594 128.29 91.3063 127.19 91.3063C126.148 91.3063 125.297 91.6362 124.632 92.3018C123.943 92.9848 123.602 93.8587 123.602 94.9179C123.602 95.9133 123.914 96.7468 124.539 97.4123C125.222 98.159 126.131 98.5352 127.254 98.5352C128.313 98.5352 129.268 98.1705 130.124 97.4471V101.498C129.106 102.06 127.919 102.338 126.571 102.338C124.406 102.338 122.612 101.643 121.177 100.248C119.724 98.8361 118.995 97.0709 118.995 94.9468C118.995 92.8227 119.764 90.9128 121.304 89.4601C122.699 88.1521 124.464 87.498 126.605 87.498C127.85 87.498 129.025 87.7585 130.13 88.2794H130.119Z" fill="#6A8A82"/>
<path d="M146.515 82.6708L144.362 86.1608C143.262 85.1653 142.093 84.6676 140.872 84.6676C139.958 84.6676 139.28 84.9049 138.846 85.3853C138.493 85.7383 138.314 86.1782 138.314 86.6933C138.314 87.1736 138.47 87.5556 138.783 87.845C138.887 87.9261 138.991 88.0071 139.095 88.0765C139.199 88.1518 139.344 88.227 139.529 88.308C139.715 88.3891 139.871 88.4585 139.998 88.5106C140.12 88.5627 140.34 88.6437 140.652 88.7595C140.965 88.8752 141.214 88.9621 141.399 89.0257L142.956 89.6161C144.264 90.1138 145.213 90.6463 145.792 91.2077C146.81 92.1626 147.32 93.4533 147.32 95.0738C147.32 97.2384 146.706 98.9516 145.479 100.219C144.131 101.631 142.163 102.337 139.587 102.337C138.007 102.337 136.635 102.048 135.472 101.463C134.43 100.943 133.418 100.184 132.416 99.1889L134.911 95.7626C135.617 96.4687 136.259 97.0011 136.844 97.3542C137.654 97.8519 138.528 98.1008 139.46 98.1008C140.392 98.1008 141.08 97.8635 141.642 97.3831C142.14 96.9664 142.388 96.405 142.388 95.6989C142.388 95.1201 142.151 94.6166 141.671 94.2057C141.295 93.8932 140.484 93.5112 139.24 93.0539L137.527 92.4636C136.178 91.9832 135.212 91.4334 134.627 90.8141C133.794 89.9402 133.383 88.7363 133.383 87.1968C133.383 85.3042 133.985 83.7473 135.189 82.5204C136.433 81.2529 138.152 80.6162 140.334 80.6162C142.516 80.6162 144.657 81.2992 146.503 82.6708H146.515Z" fill="#6A8A82"/>
<path d="M150.381 101.875V79.1465H154.872V89.6222C155.393 88.9798 155.955 88.4994 156.557 88.1868C157.303 87.7933 158.206 87.5965 159.271 87.5965C160.973 87.5965 162.286 88.0653 163.201 88.9971C164.115 89.9116 164.573 91.2601 164.573 93.0485V101.869H160.081V94.7327C160.081 93.361 159.833 92.435 159.335 91.9604C158.918 91.5437 158.339 91.3353 157.587 91.3353C156.834 91.3353 156.267 91.5668 155.81 92.0183C155.185 92.6202 154.872 93.5867 154.872 94.9179V101.869H150.381V101.875Z" fill="#6A8A82"/>
<path d="M168.757 83.8977C168.248 83.3884 167.993 82.7691 167.993 82.0456C167.993 81.3222 168.248 80.6971 168.757 80.1878C169.266 79.6785 169.886 79.4238 170.609 79.4238C171.333 79.4238 171.958 79.6785 172.467 80.1878C172.976 80.6971 173.231 81.3164 173.231 82.0456C173.231 82.7749 172.976 83.3942 172.467 83.8977C171.958 84.407 171.338 84.6617 170.609 84.6617C169.88 84.6617 169.261 84.407 168.757 83.8977ZM168.364 87.9664H172.855V101.868H168.364V87.9664Z" fill="#6A8A82"/>
<path d="M190.907 95.2304V95.6992H180.523C180.523 96.6542 180.801 97.4471 181.363 98.0664C181.901 98.6509 182.671 98.9403 183.672 98.9403C184.419 98.9403 185.021 98.8072 185.478 98.5352C185.831 98.3499 186.155 97.9622 186.444 97.3834L190.687 97.8175C190.206 99.3338 189.315 100.497 188.007 101.307C186.861 101.996 185.397 102.338 183.614 102.338C181.247 102.338 179.395 101.672 178.064 100.341C176.669 98.9461 175.974 97.1635 175.974 94.9815C175.974 92.7996 176.68 90.9475 178.093 89.4948C179.424 88.1636 181.201 87.498 183.423 87.498C185.773 87.498 187.613 88.1926 188.939 89.5874C190.247 90.9822 190.901 92.8632 190.901 95.2304H190.907ZM180.68 93.0195H186.757C186.589 92.3539 186.288 91.8157 185.854 91.3989C185.293 90.8781 184.586 90.6176 183.736 90.6176C182.821 90.6176 182.063 90.9186 181.461 91.5205C181.044 91.9546 180.784 92.4581 180.68 93.0137V93.0195Z" fill="#6A8A82"/>
<path d="M193.835 79.1465H198.326V101.875H193.835V79.1465Z" fill="#6A8A82"/>
<path d="M217.09 79.1465V101.875H212.599V100.19C211.621 101.626 210.156 102.343 208.206 102.343C206.255 102.343 204.664 101.713 203.437 100.439C201.984 98.9866 201.255 97.123 201.255 94.86C201.255 92.597 201.984 90.7681 203.437 89.3733C204.745 88.129 206.354 87.5039 208.27 87.5039C210.185 87.5039 211.603 88.1811 212.605 89.5296V79.1465H217.096H217.09ZM209.358 91.3643C208.403 91.3643 207.604 91.6768 206.956 92.3019C206.226 92.9848 205.862 93.8703 205.862 94.9526C205.862 95.9713 206.226 96.8221 206.956 97.5108C207.621 98.1532 208.403 98.4773 209.294 98.4773C210.289 98.4773 211.146 98.1359 211.852 97.4471C212.535 96.8047 212.882 95.9713 212.882 94.9526C212.882 93.934 212.547 93.1006 211.887 92.3945C211.221 91.7115 210.382 91.3643 209.363 91.3643H209.358Z" fill="#6A8A82"/>
<path d="M112.611 48.0612C112.611 46.3423 111.158 44.9648 109.416 45.0922C107.946 45.1963 106.76 46.3886 106.661 47.8644C106.597 48.8078 106.979 49.6702 107.616 50.2548C107.911 50.5268 108.062 50.9146 108.01 51.3139L107.107 57.9813H112.165L111.262 51.3139C111.21 50.9203 111.361 50.5268 111.65 50.2605C112.24 49.7165 112.611 48.9352 112.611 48.067V48.0612Z" fill="#6A8A82"/>
<path d="M91.4974 42.8754C91.2717 43.0201 91.0633 43.1937 90.8665 43.3847C90.1431 44.1082 89.7437 45.0747 89.7437 46.0992C89.7437 47.1236 90.1431 48.0901 90.8665 48.8136C92.3655 50.3126 94.8021 50.3126 96.3012 48.8136C96.4921 48.6226 96.6658 48.4084 96.8105 48.1827C96.9146 48.3216 97.0304 48.4547 97.1577 48.5821C97.9391 49.3634 98.9924 49.7685 100.104 49.7107C100.978 49.6644 101.823 49.3229 102.477 48.7383C103.379 47.9338 103.848 46.7879 103.773 45.5783C103.721 44.8143 103.443 44.0793 102.98 43.4773C102.61 42.997 102.147 42.6266 101.632 42.3719C102.135 41.8105 102.407 41.0928 102.407 40.3346C102.407 39.97 102.343 39.6112 102.222 39.2813L103.131 38.3726C103.293 38.2106 103.542 38.1642 103.75 38.2569C104.126 38.4247 104.578 38.3552 104.89 38.0427C105.197 37.736 105.266 37.2787 105.104 36.9025C105.012 36.6942 105.058 36.4453 105.22 36.2833L120.708 20.7954C121.049 20.454 121.605 20.454 121.946 20.7954L122.728 21.5768L121.721 22.5838C121.136 23.1684 121.136 24.1176 121.721 24.7021L123.972 26.9535L125.083 25.8423L123.486 24.2449L124.447 23.2841L126.044 24.8815L127.757 23.1684L126.16 21.571L127.132 20.5987L128.73 22.196L129.841 21.0848L128.243 19.4874L127.589 18.8334C127.005 18.2489 126.056 18.2489 125.471 18.8334L124.447 19.8578L123.665 19.0765C123.324 18.735 123.324 18.1794 123.665 17.8379L124.58 16.9235C124.753 16.7498 124.973 16.6457 125.216 16.6109C125.431 16.582 125.639 16.4836 125.801 16.3216C126.2 15.9222 126.2 15.274 125.801 14.8746L124.811 13.8849C124.609 13.6824 124.348 13.584 124.088 13.584C123.827 13.584 123.561 13.6824 123.364 13.8849C123.202 14.047 123.104 14.2554 123.075 14.4695C123.04 14.7068 122.936 14.9325 122.762 15.1061L103.408 34.4601C103.246 34.6222 102.998 34.6685 102.789 34.5759C102.656 34.518 102.517 34.4891 102.378 34.4891C102.118 34.4891 101.852 34.5875 101.655 34.79C101.348 35.0968 101.279 35.554 101.441 35.9244C101.533 36.1328 101.487 36.3816 101.325 36.5437L100.41 37.4582C100.075 37.3366 99.7217 37.2729 99.357 37.2729C98.5989 37.2729 97.8812 37.5508 97.3198 38.0485C97.1404 37.6839 96.8973 37.3366 96.5905 37.0299C95.8324 36.2717 94.8427 35.8955 93.8472 35.8955C92.8517 35.8955 91.862 36.2717 91.1038 37.0299C90.3688 37.7649 89.9694 38.7372 89.9694 39.7732C89.9694 40.8092 90.3746 41.7815 91.1038 42.5166C91.2312 42.6439 91.3643 42.7597 91.5032 42.8638L91.4974 42.8754ZM95.1783 47.6966C94.2986 48.5763 92.8691 48.5763 91.9951 47.6966C91.5668 47.2683 91.3353 46.7069 91.3353 46.1049C91.3353 45.503 91.5668 44.9358 91.9951 44.5133C92.4234 44.085 92.9848 43.8535 93.5867 43.8535C94.1886 43.8535 94.7558 44.085 95.1783 44.5133C95.6066 44.9416 95.8381 45.503 95.8381 46.1049C95.8381 46.7069 95.6066 47.2741 95.1783 47.6966ZM102.152 45.8503C102.152 46.4522 101.915 47.0194 101.493 47.4419C101.064 47.8702 100.503 48.1017 99.9011 48.1017C99.2992 48.1017 98.732 47.8702 98.3095 47.4419C97.9275 47.0599 97.7018 46.5737 97.6555 46.0413C97.6555 45.9718 97.6555 45.9024 97.6497 45.8329C97.6497 45.2368 97.887 44.6754 98.3095 44.2529C98.651 43.9114 99.0792 43.6973 99.5423 43.622C99.6349 43.622 99.7217 43.6105 99.8143 43.5931C99.8432 43.5931 99.8721 43.5931 99.9069 43.5931C100.509 43.5931 101.076 43.8246 101.498 44.2529C101.927 44.6812 102.158 45.2426 102.158 45.8445L102.152 45.8503ZM99.3455 38.9514C99.7159 38.9514 100.069 39.0961 100.329 39.3565C100.59 39.617 100.735 39.97 100.735 40.3404C100.735 40.7108 100.59 41.0639 100.329 41.3243C100.069 41.5848 99.7159 41.7295 99.3455 41.7295C98.9751 41.7295 98.622 41.5848 98.3616 41.3243C98.1011 41.0639 97.9564 40.7108 97.9564 40.3404C97.9564 39.97 98.1011 39.617 98.3616 39.3565C98.622 39.0961 98.9751 38.9514 99.3455 38.9514ZM92.244 38.1932C93.1237 37.3135 94.5533 37.3135 95.433 38.1932C96.3127 39.0729 96.3127 40.5025 95.433 41.3822C94.5533 42.2619 93.1237 42.2619 92.244 41.3822C91.8157 40.9539 91.5842 40.3925 91.5842 39.7906C91.5842 39.1887 91.8157 38.6215 92.244 38.199V38.1932Z" fill="#6A8A82"/>
<path d="M114.26 38.0485C114.567 38.3553 115.024 38.4247 115.4 38.2626C115.609 38.17 115.858 38.2163 116.02 38.3784L116.928 39.2871C116.807 39.6228 116.743 39.9758 116.743 40.3404C116.743 41.0986 117.015 41.8163 117.519 42.3777C117.148 42.5629 116.807 42.806 116.506 43.1069C114.995 44.6175 114.995 47.0773 116.506 48.5879C117.241 49.3229 118.213 49.7223 119.249 49.7223C120.285 49.7223 121.258 49.3171 121.993 48.5879C122.12 48.4605 122.236 48.3274 122.34 48.1885C122.485 48.4142 122.658 48.6226 122.849 48.8194C124.435 50.4052 127.068 50.3126 128.533 48.5473C129.036 47.9396 129.343 47.1872 129.401 46.4001C129.488 45.2657 129.083 44.1777 128.284 43.3847C128.093 43.1937 127.879 43.0201 127.653 42.8754C127.792 42.7713 127.925 42.6555 128.052 42.5282C128.834 41.7468 129.239 40.6993 129.181 39.588C129.135 38.6967 128.782 37.8459 128.185 37.1861C127.439 36.3643 126.409 35.9071 125.309 35.9071C124.273 35.9071 123.301 36.3122 122.566 37.0414C122.265 37.3424 122.022 37.6839 121.836 38.0543C121.258 37.5392 120.528 37.2787 119.799 37.2787C119.44 37.2787 119.087 37.3424 118.746 37.464L117.831 36.5495C117.669 36.3874 117.623 36.1444 117.716 35.9302C117.883 35.554 117.808 35.1026 117.501 34.7958C117.299 34.5933 117.038 34.4949 116.778 34.4949C116.639 34.4949 116.5 34.5238 116.367 34.5817C116.159 34.6743 115.91 34.628 115.748 34.4659L109.844 28.5625L108.027 30.3798L113.93 36.2833C114.092 36.4453 114.139 36.6942 114.046 36.9025C113.878 37.2787 113.948 37.7302 114.26 38.0427V38.0485ZM120.841 47.4477C120.413 47.876 119.851 48.1075 119.249 48.1075C118.647 48.1075 118.08 47.8702 117.658 47.4477C116.778 46.568 116.778 45.1384 117.658 44.2587C118.086 43.8304 118.647 43.5989 119.249 43.5989C119.284 43.5989 119.319 43.5989 119.353 43.5989C119.434 43.6105 119.516 43.6163 119.597 43.622C120.065 43.6915 120.499 43.9114 120.847 44.2587C121.726 45.1384 121.726 46.568 120.847 47.4477H120.841ZM127.155 47.6966C126.715 48.1364 126.137 48.3564 125.564 48.3564C124.991 48.3564 124.412 48.1364 123.972 47.6966C123.544 47.2683 123.312 46.7069 123.312 46.105C123.312 45.503 123.544 44.9358 123.972 44.5133C124.4 44.0851 124.962 43.8535 125.564 43.8535C126.166 43.8535 126.733 44.0851 127.155 44.5133C127.584 44.9416 127.815 45.503 127.815 46.105C127.815 46.7069 127.584 47.2741 127.155 47.6966ZM123.717 38.1932C124.146 37.7649 124.707 37.5334 125.309 37.5334C125.911 37.5334 126.478 37.7649 126.901 38.1932C127.329 38.6215 127.56 39.1829 127.56 39.7848C127.56 40.3867 127.329 40.9539 126.901 41.3764C126.472 41.8047 125.911 42.0362 125.309 42.0362C124.707 42.0362 124.14 41.8047 123.717 41.3764C123.376 41.0349 123.156 40.6009 123.087 40.1379C123.087 40.051 123.075 39.97 123.063 39.8832C123.063 39.8485 123.063 39.8195 123.063 39.7848C123.063 39.1829 123.295 38.6157 123.723 38.1932H123.717ZM120.783 39.3623C121.043 39.6228 121.188 39.9758 121.188 40.3462C121.188 40.7166 121.043 41.0697 120.783 41.3301C120.511 41.6021 120.158 41.7353 119.799 41.7353C119.44 41.7353 119.087 41.6021 118.815 41.3301C118.555 41.0697 118.41 40.7166 118.41 40.3462C118.41 39.9758 118.555 39.6228 118.815 39.3623C119.359 38.8183 120.239 38.8183 120.783 39.3623Z" fill="#6A8A82"/>
<path d="M89.3154 21.1015L90.4267 22.2127L92.0183 20.6211L92.9906 21.5934L91.399 23.1908L93.1121 24.904L94.7038 23.3066L95.6645 24.2673L94.0729 25.859L95.1841 26.9702L97.4355 24.7188C98.0201 24.1342 98.0201 23.1851 97.4355 22.6005L96.4285 21.5934L97.2098 20.8121C97.5513 20.4706 98.1069 20.4706 98.4484 20.8121L106.019 28.3824L107.836 26.5651L96.3995 15.1286C96.2259 14.955 96.1217 14.735 96.087 14.492C96.0581 14.2778 95.9597 14.0752 95.7976 13.9074C95.5951 13.7048 95.3346 13.6064 95.0742 13.6064C94.8137 13.6064 94.5475 13.7048 94.3507 13.9074L93.361 14.8971C92.9617 15.2964 92.9617 15.9447 93.361 16.344C93.5231 16.5061 93.7314 16.6045 93.9456 16.6334C94.1887 16.6681 94.4086 16.7723 94.5822 16.9459L95.4967 17.8604C95.8381 18.2019 95.8381 18.7575 95.4967 19.099L94.7153 19.8803L93.6909 18.8559C93.1064 18.2713 92.1572 18.2713 91.5726 18.8559L90.9186 19.5099L89.327 21.1073L89.3154 21.1015Z" fill="#6A8A82"/>
<path d="M118.555 31.2305H128.585C129.036 31.2305 129.407 31.5951 129.407 32.0523C129.407 32.5038 129.042 32.8742 128.585 32.8742H118.555V31.2363V31.2305Z" fill="#6A8A82"/>
<path d="M100.711 32.8683H90.6813C90.2299 32.8683 89.8595 32.5037 89.8595 32.0465C89.8595 31.595 90.2241 31.2246 90.6813 31.2246H100.711V32.8625V32.8683Z" fill="#6A8A82"/>
<path d="M67.9531 17.606V18.4857H59.4105V17.6118C59.4105 17.0446 59.3121 16.4774 59.1211 15.9449C58.8317 15.1405 58.4381 14.2144 57.9288 13.3231L60.1397 14.5212C60.0992 14.6427 60.0761 14.7758 60.0761 14.9089C60.0761 15.6093 60.6722 16.2864 61.4014 16.2864C62.1307 16.2864 62.7268 15.6035 62.7268 14.9089C62.7268 14.4517 62.4722 14.0524 62.0902 13.8324C62.0902 13.8324 62.4606 13.4273 62.8773 12.7444C63.4156 11.8646 63.676 11.1064 63.676 11.1064C63.676 11.1064 63.9364 11.8704 64.4747 12.7444C64.8914 13.4273 65.2618 13.8324 65.2618 13.8324C64.8798 14.0524 64.6252 14.4517 64.6252 14.9089C64.6252 15.6093 65.2213 16.2864 65.9506 16.2864C66.6798 16.2864 67.2759 15.6035 67.2759 14.9089C67.2759 14.77 67.2528 14.6427 67.2123 14.5212L69.4232 13.3231C68.9196 14.2086 68.5261 15.1347 68.2367 15.9276C68.0399 16.46 67.9473 17.0272 67.9473 17.6002L67.9531 17.606Z" fill="#6A8A82"/>
<path d="M80.0146 32.9371C78.8224 33.3191 76.5999 34.3551 77.1034 35.8368C76.8951 35.8252 76.2584 35.7442 75.7954 35.2638L75.7317 35.2001L75.7144 35.2869C75.5234 36.1898 75.8012 36.8554 75.9112 37.0753H73.3067C73.3067 34.1352 71.8713 32.4105 71.5125 32.0285C71.5472 32.0285 71.5762 32.0285 71.6109 32.0285C74.9388 32.1153 77.2539 30.8536 77.5896 29.4298C77.9484 27.9134 78.6024 27.2594 79.6963 26.8543C80.9754 26.3797 82.4049 26.7385 82.6364 26.7848V32.6304C82.5438 32.642 81.1837 32.5609 80.0146 32.9371Z" fill="#6A8A82"/>
<path d="M67.5133 48.1416C67.5885 48.1937 67.9126 48.4368 68.3351 48.9982C68.775 49.5827 69.4059 50.6419 69.9325 52.355C70.6849 54.8032 70.7197 56.8926 70.7197 57.1588C68.6766 58.1774 67.4843 59.3234 67.1776 60.5735C66.9519 61.4996 67.2123 62.495 67.9589 63.5195L67.9763 63.5426H68.0052C68.0052 63.5426 68.3004 63.4789 69.5448 63.2764C70.0309 63.1954 70.7486 63.2127 71.42 63.722C72.2881 64.3876 72.8264 65.6898 73.0232 67.5824C73.0232 67.5824 65.7017 67.6345 65.4934 67.5824C64.9493 65.9908 63.5429 62.223 62.015 59.8385C62.2118 59.717 62.9989 59.2076 63.2941 58.461C63.6703 57.5061 63.2941 56.389 62.7442 55.8276C62.206 55.2662 61.6504 55.272 61.4883 55.2894C61.4536 55.1215 61.2394 54.4791 61.17 53.7325C61.0658 52.5923 61.2394 51.73 61.4767 51.238C62.4896 49.1602 67.1718 48.2111 67.5133 48.1416Z" fill="#6A8A82"/>
<path d="M41.0925 33.186C41.2083 32.4278 41.4687 31.7854 41.7755 31.0446C41.897 30.7436 42.0243 30.4369 42.1574 30.0838C42.5799 28.961 42.7941 27.9655 42.7767 27.2073C42.7536 26.1656 42.4063 25.6736 42.2558 25.5C42.823 25.4421 43.3323 25.8299 43.4307 26.1424L43.506 26.3797L43.5233 26.1308C43.5812 25.2569 44.1542 24.7302 45.5027 24.3135C46.6545 23.9547 47.3663 23.0518 47.1754 22.0679C47.459 22.3283 48.5065 23.1386 48.5297 24.0646C48.5412 24.6897 48.0898 25.6041 47.4647 26.1482C46.5734 26.9237 46.4403 27.4041 46.4114 28.0408C46.3477 29.1925 45.3464 29.8697 44.2584 29.5629H44.2468L44.2352 29.5803C44.2294 29.5919 43.396 30.7031 42.9272 32.1384C42.6552 32.9719 42.7594 33.759 43.1934 34.1468C43.5175 34.4361 43.9806 34.4651 44.4899 34.2336C45.0802 33.9616 45.4796 33.5043 46.0294 32.8735C46.2783 32.5841 46.5676 32.26 46.9091 31.9011C48.4544 30.3095 50.1965 29.806 51.8229 30.4832C52.9167 30.9404 53.6691 32.0053 53.9411 33.4812C54.1958 34.8586 54.0048 36.4503 53.4203 37.8509C53.3392 38.0477 53.2524 38.2502 53.1598 38.4644L53.1193 38.5512L53.2119 38.528C53.9875 38.337 54.5662 38.4702 54.7977 38.5454C54.5952 38.6438 54.1264 38.91 53.5244 39.4251C52.7778 40.0676 52.2511 40.6116 51.7823 41.5145C51.1746 42.6836 50.9373 44.362 52.0891 45.5774L52.1528 45.6411L52.1759 45.5543C52.4595 44.362 53.3566 43.7717 54.2247 43.1987C55.0813 42.6315 55.8627 42.1685 56.6151 41.7228C57.1822 41.3871 57.7205 41.0688 58.2819 40.71C59.341 40.0386 59.9893 39.13 60.1976 38.0187C60.3655 37.1158 60.1976 36.3287 60.134 35.993C59.833 34.5635 58.8317 34.0484 58.8202 34.0426L58.6755 33.9673L58.7565 34.1062C59.3758 35.148 59.3411 36.8438 58.9186 37.7699C58.4092 38.8869 57.7668 39.3383 57.5179 39.4772C57.6279 39.1589 57.8536 38.2155 57.408 36.647C57.0028 35.2233 56.343 33.9326 55.7064 32.6883C55.3418 31.9764 55.0003 31.305 54.6993 30.6163C54.219 29.4993 53.7617 27.7745 54.3231 25.9051C54.6588 24.7881 55.2087 24.1399 55.2144 24.1341L55.3302 24.001L55.1623 24.0588C54.7398 24.2035 53.8543 24.7939 53.3971 26.0267C53.2698 23.6942 54.0974 22.0852 55.8511 20.2795C57.3675 18.7921 59.4915 17.9702 61.6851 17.6692C61.6851 17.6692 61.4709 17.3567 61.1294 17.1657C61.9455 17.0384 63.3345 17.0963 64.2201 17.2294C67.2181 17.6808 69.3306 18.7168 69.7299 19.6081C69.7299 19.6081 69.6431 20.019 70.6039 20.7193C71.7035 21.5238 73.8797 23.3064 74.4585 23.8273C74.5858 23.9431 74.6089 24.1341 74.5163 24.2846L74.0996 24.9444C74.0244 24.7128 73.8508 24.5045 73.6308 24.3714C73.4109 24.2383 73.1678 24.1977 72.9652 24.2556L72.8553 24.2903L72.9595 24.3424C72.9595 24.3424 73.5787 24.6839 73.5614 25.4421C73.5498 25.8588 73.2257 26.4434 72.6527 26.7096H72.6353L72.6296 26.7327C72.6296 26.7385 72.1955 27.4678 71.5762 27.6819C71.6341 27.5025 71.7325 27.0974 71.6341 26.7675V26.7443L71.6051 26.7385C71.3447 26.6344 71.1248 26.6054 70.9569 26.3681C70.4187 25.5984 69.6778 25.0948 68.9544 25.4363C68.5087 25.6447 67.8084 26.6112 68.5203 27.5083C69.0007 28.116 70.0309 28.0523 70.5171 27.8671C70.5807 27.9424 70.5634 28.0697 71.0206 28.2723C71.3158 28.4054 71.5704 28.4227 71.6862 28.4227C71.6225 28.961 71.1595 29.2157 71.1595 29.2157C71.1595 29.2157 71.3794 29.7018 71.2926 30.0433C71.1306 30.6915 70.5055 31.0156 70.3087 31.1024C70.2798 30.9172 70.1524 30.3906 69.5795 29.9738C68.9486 29.5166 68.2599 29.3256 67.1428 29.1173C66.13 28.9321 65.4008 28.5154 64.9146 27.8498C64.521 27.3115 64.2722 26.6112 64.1101 25.581L64.0869 25.4247L64.0233 25.5694C64.0233 25.5694 63.4735 26.8138 64.0406 28.1565C64.5152 29.2793 65.6091 30.1533 67.2933 30.7552C68.9081 31.334 70.0598 32.15 70.818 33.2439C71.5241 34.2683 71.8656 35.5184 71.8772 37.0753H71.4489C70.0425 37.0753 69.8688 36.9769 69.7357 36.8959C69.7241 36.8901 69.7126 36.8843 69.701 36.8728L69.6315 36.8322V36.9133C69.6315 37.1621 69.7184 38.4123 71.3968 38.4123H76.6288C77.5259 38.4123 77.8153 37.9203 78.2494 37.2605C79.1581 35.8773 80.0378 35.5184 81.4268 35.6689C82.1329 35.7442 82.6654 35.7499 82.7927 35.7963V41.8559C80.8944 41.0978 79.8468 41.4682 79.3085 42.4231C79.3085 42.4231 75.7318 41.6244 73.1736 43.355C72.3054 43.9453 71.8366 44.5819 71.8366 44.5819C71.5299 44.0784 70.6849 43.0656 69.1049 42.8051C68.393 42.6894 67.9821 42.8341 67.9647 42.8399L67.8489 42.8804L67.9647 42.9267C67.9647 42.9267 69.7241 43.6501 69.9614 45.0044C69.0933 45.8842 67.6348 46.3356 66.0953 46.8218C64.712 47.2559 63.2825 47.7015 62.1249 48.4886C61.9513 48.6044 61.7314 48.7607 61.523 48.9343C61.5809 47.7478 62.015 46.7813 62.0207 46.7755L62.096 46.6134L61.9513 46.7176C61.9513 46.7176 60.7417 47.5915 59.9314 49.7156C58.8896 52.4358 59.7288 55.3065 59.7925 55.5207C59.7751 55.6017 59.6246 56.1226 58.9301 56.7766C57.6626 57.9631 55.5848 58.6634 54.0685 59.0396C53.9527 59.0685 53.8138 59.0974 53.6691 59.1322C52.6852 59.3463 51.2036 59.6762 50.6711 60.7701C50.3412 61.4588 50.4454 62.3559 50.9779 63.4498L50.9952 63.4787H51.0299C51.0299 63.4787 51.3078 63.3745 51.9386 63.2761C52.8878 63.1315 53.6344 63.2761 54.2132 63.716C55.0524 64.3584 55.5791 65.6259 55.8106 67.588C55.8106 67.588 48.4197 67.6632 48.2056 67.588L45.7574 57.5406C45.9889 57.5579 46.7992 57.5811 47.7194 57.3438C48.7264 57.0833 50.0808 56.0994 50.7984 54.5425C51.4409 53.1535 51.6203 51.6255 51.3135 50.2423C51.0299 48.969 50.3412 47.8867 49.4326 47.2732C48.6802 46.7639 48.1477 46.6539 47.7194 46.5671H47.7078C47.9393 46.4224 48.5818 46.0752 49.3342 46.1446H49.4094L49.3862 46.081C48.466 43.4418 49.5425 41.3871 50.5843 39.3962C51.493 37.6541 52.4364 35.8541 52.0023 33.7011C51.8981 33.1802 51.6087 32.7461 51.1804 32.4799C50.7521 32.2079 50.2255 32.1211 49.7335 32.2426C49.12 32.3931 48.5355 32.7346 47.5053 33.9442C47.4127 34.0542 47.32 34.1641 47.2274 34.2741C46.5156 35.1365 45.8384 35.9467 44.5883 36.3287C43.6333 36.6239 42.6494 36.4445 41.9607 35.8541C41.2603 35.2522 40.9652 34.3088 41.133 33.1976L41.0925 33.186ZM69.2033 22.1894C69.2148 22.2299 69.5158 23.1849 70.3782 23.7232L70.3955 23.7347H70.4129C70.4129 23.7347 70.8064 23.6769 70.9685 23.1618H71.5704L71.4778 23.0807C71.4662 23.0749 70.546 22.2589 69.2611 22.1315H69.1917L69.2148 22.1952L69.2033 22.1894Z" fill="#6A8A82"/>
<path d="M151.313 17.606V18.4857H159.856V17.6118C159.856 17.0446 159.954 16.4774 160.145 15.9449C160.434 15.1405 160.828 14.2144 161.337 13.3231L159.126 14.5212C159.167 14.6427 159.19 14.7758 159.19 14.9089C159.19 15.6093 158.594 16.2864 157.865 16.2864C157.135 16.2864 156.539 15.6035 156.539 14.9089C156.539 14.4517 156.794 14.0524 157.176 13.8324C157.176 13.8324 156.806 13.4273 156.389 12.7444C155.851 11.8646 155.59 11.1064 155.59 11.1064C155.59 11.1064 155.33 11.8704 154.791 12.7444C154.375 13.4273 154.004 13.8324 154.004 13.8324C154.386 14.0524 154.641 14.4517 154.641 14.9089C154.641 15.6093 154.045 16.2864 153.316 16.2864C152.586 16.2864 151.99 15.6035 151.99 14.9089C151.99 14.77 152.013 14.6427 152.054 14.5212L149.843 13.3231C150.346 14.2086 150.74 15.1347 151.029 15.9276C151.226 16.46 151.319 17.0272 151.319 17.6002L151.313 17.606Z" fill="#6A8A82"/>
<path d="M139.252 32.9371C140.444 33.3191 142.666 34.3551 142.163 35.8368C142.371 35.8252 143.008 35.7442 143.471 35.2638L143.534 35.2001L143.552 35.2869C143.743 36.1898 143.465 36.8554 143.355 37.0753H145.959C145.959 34.1352 147.395 32.4105 147.754 32.0285C147.719 32.0285 147.69 32.0285 147.655 32.0285C144.327 32.1153 142.012 30.8536 141.677 29.4298C141.318 27.9134 140.664 27.2594 139.57 26.8543C138.291 26.3797 136.861 26.7385 136.63 26.7848V32.6304C136.722 32.642 138.082 32.5609 139.252 32.9371Z" fill="#6A8A82"/>
<path d="M151.753 48.1416C151.678 48.1937 151.354 48.4368 150.931 48.9982C150.491 49.5827 149.86 50.6419 149.334 52.355C148.581 54.8032 148.547 56.8926 148.547 57.1588C150.59 58.1774 151.782 59.3234 152.089 60.5735C152.314 61.4996 152.054 62.495 151.307 63.5195L151.29 63.5426H151.261C151.261 63.5426 150.966 63.4789 149.721 63.2764C149.235 63.1954 148.518 63.2127 147.846 63.722C146.978 64.3876 146.44 65.6898 146.243 67.5824C146.243 67.5824 153.564 67.6345 153.773 67.5824C154.317 65.9908 155.723 62.223 157.251 59.8385C157.054 59.717 156.267 59.2076 155.972 58.461C155.596 57.5061 155.972 56.389 156.522 55.8276C157.06 55.2662 157.616 55.272 157.778 55.2894C157.813 55.1215 158.027 54.4791 158.096 53.7325C158.2 52.5923 158.027 51.73 157.789 51.238C156.777 49.1602 152.094 48.2111 151.753 48.1416Z" fill="#6A8A82"/>
<path d="M178.174 33.186C178.058 32.4278 177.797 31.7854 177.491 31.0446C177.369 30.7436 177.242 30.4369 177.109 30.0838C176.686 28.961 176.472 27.9655 176.489 27.2073C176.513 26.1656 176.86 25.6736 177.01 25.5C176.443 25.4421 175.934 25.8299 175.835 26.1424L175.76 26.3797L175.743 26.1308C175.685 25.2569 175.112 24.7302 173.763 24.3135C172.612 23.9547 171.9 23.0518 172.091 22.0679C171.807 22.3283 170.76 23.1386 170.736 24.0646C170.725 24.6897 171.176 25.6041 171.801 26.1482C172.693 26.9237 172.826 27.4041 172.855 28.0408C172.918 29.1925 173.92 29.8697 175.008 29.5629H175.019L175.031 29.5803C175.037 29.5919 175.87 30.7031 176.339 32.1384C176.611 32.9719 176.507 33.759 176.073 34.1468C175.749 34.4361 175.286 34.4651 174.776 34.2336C174.186 33.9616 173.787 33.5043 173.237 32.8735C172.988 32.5841 172.699 32.26 172.357 31.9011C170.812 30.3095 169.07 29.806 167.443 30.4832C166.349 30.9404 165.597 32.0053 165.325 33.4812C165.07 34.8586 165.261 36.4503 165.846 37.8509C165.927 38.0477 166.014 38.2502 166.106 38.4644L166.147 38.5512L166.054 38.528C165.279 38.337 164.7 38.4702 164.468 38.5454C164.671 38.6438 165.14 38.91 165.742 39.4251C166.488 40.0676 167.015 40.6116 167.484 41.5145C168.092 42.6836 168.329 44.362 167.177 45.5774L167.113 45.6411L167.09 45.5543C166.807 44.362 165.91 43.7717 165.041 43.1987C164.185 42.6315 163.404 42.1685 162.651 41.7228C162.084 41.3871 161.546 41.0688 160.984 40.71C159.925 40.0386 159.277 39.13 159.069 38.0187C158.901 37.1158 159.069 36.3287 159.132 35.993C159.433 34.5635 160.434 34.0484 160.446 34.0426L160.591 33.9673L160.51 34.1062C159.89 35.148 159.925 36.8438 160.348 37.7699C160.857 38.8869 161.499 39.3383 161.748 39.4772C161.638 39.1589 161.413 38.2155 161.858 36.647C162.263 35.2233 162.923 33.9326 163.56 32.6883C163.924 31.9764 164.266 31.305 164.567 30.6163C165.047 29.4993 165.504 27.7745 164.943 25.9051C164.607 24.7881 164.058 24.1399 164.052 24.1341L163.936 24.001L164.104 24.0588C164.526 24.2035 165.412 24.7939 165.869 26.0267C165.996 23.6942 165.169 22.0852 163.415 20.2795C161.899 18.7921 159.775 17.9702 157.581 17.6692C157.581 17.6692 157.795 17.3567 158.137 17.1657C157.321 17.0384 155.932 17.0963 155.046 17.2294C152.048 17.6808 149.936 18.7168 149.536 19.6081C149.536 19.6081 149.623 20.019 148.662 20.7193C147.563 21.5238 145.386 23.3064 144.808 23.8273C144.68 23.9431 144.657 24.1341 144.75 24.2846L145.167 24.9444C145.242 24.7128 145.415 24.5045 145.635 24.3714C145.855 24.2383 146.098 24.1977 146.301 24.2556L146.411 24.2903L146.307 24.3424C146.307 24.3424 145.687 24.6839 145.705 25.4421C145.716 25.8588 146.04 26.4434 146.613 26.7096H146.631L146.637 26.7327C146.637 26.7385 147.071 27.4678 147.69 27.6819C147.632 27.5025 147.534 27.0974 147.632 26.7675V26.7443L147.661 26.7385C147.921 26.6344 148.141 26.6054 148.309 26.3681C148.848 25.5984 149.588 25.0948 150.312 25.4363C150.757 25.6447 151.458 26.6112 150.746 27.5083C150.265 28.116 149.235 28.0523 148.749 27.8671C148.685 27.9424 148.703 28.0697 148.246 28.2723C147.95 28.4054 147.696 28.4227 147.58 28.4227C147.644 28.961 148.107 29.2157 148.107 29.2157C148.107 29.2157 147.887 29.7018 147.974 30.0433C148.136 30.6915 148.761 31.0156 148.957 31.1024C148.986 30.9172 149.114 30.3906 149.687 29.9738C150.318 29.5166 151.006 29.3256 152.123 29.1173C153.136 28.9321 153.865 28.5154 154.352 27.8498C154.745 27.3115 154.994 26.6112 155.156 25.581L155.179 25.4247L155.243 25.5694C155.243 25.5694 155.793 26.8138 155.226 28.1565C154.751 29.2793 153.657 30.1533 151.973 30.7552C150.358 31.334 149.206 32.15 148.448 33.2439C147.742 34.2683 147.401 35.5184 147.389 37.0753H147.817C149.224 37.0753 149.397 36.9769 149.53 36.8959C149.542 36.8901 149.554 36.8843 149.565 36.8728L149.635 36.8322V36.9133C149.635 37.1621 149.548 38.4123 147.869 38.4123H142.637C141.74 38.4123 141.451 37.9203 141.017 37.2605C140.108 35.8773 139.228 35.5184 137.839 35.6689C137.133 35.7442 136.601 35.7499 136.473 35.7963V41.8559C138.372 41.0978 139.419 41.4682 139.958 42.4231C139.958 42.4231 143.534 41.6244 146.093 43.355C146.961 43.9453 147.43 44.5819 147.43 44.5819C147.736 44.0784 148.581 43.0656 150.161 42.8051C150.873 42.6894 151.284 42.8341 151.301 42.8399L151.417 42.8804L151.301 42.9267C151.301 42.9267 149.542 43.6501 149.305 45.0044C150.173 45.8842 151.631 46.3356 153.171 46.8218C154.554 47.2559 155.984 47.7015 157.141 48.4886C157.315 48.6044 157.535 48.7607 157.743 48.9343C157.685 47.7478 157.251 46.7813 157.245 46.7755L157.17 46.6134L157.315 46.7176C157.315 46.7176 158.524 47.5915 159.335 49.7156C160.377 52.4358 159.537 55.3065 159.474 55.5207C159.491 55.6017 159.642 56.1226 160.336 56.7766C161.604 57.9631 163.681 58.6634 165.198 59.0396C165.313 59.0685 165.452 59.0974 165.597 59.1322C166.581 59.3463 168.063 59.6762 168.595 60.7701C168.925 61.4588 168.821 62.3559 168.288 63.4498L168.271 63.4787H168.236C168.236 63.4787 167.958 63.3745 167.328 63.2761C166.378 63.1315 165.632 63.2761 165.053 63.716C164.214 64.3584 163.687 65.6259 163.456 67.588C163.456 67.588 170.846 67.6632 171.061 67.588L173.509 57.5406C173.277 57.5579 172.467 57.5811 171.547 57.3438C170.54 57.0833 169.185 56.0994 168.468 54.5425C167.825 53.1535 167.646 51.6255 167.953 50.2423C168.236 48.969 168.925 47.8867 169.834 47.2732C170.586 46.7639 171.118 46.6539 171.547 46.5671H171.558C171.327 46.4224 170.684 46.0752 169.932 46.1446H169.857L169.88 46.081C170.8 43.4418 169.724 41.3871 168.682 39.3962C167.773 37.6541 166.83 35.8541 167.264 33.7011C167.368 33.1802 167.657 32.7461 168.086 32.4799C168.514 32.2079 169.041 32.1211 169.533 32.2426C170.146 32.3931 170.731 32.7346 171.761 33.9442C171.854 34.0542 171.946 34.1641 172.039 34.2741C172.751 35.1365 173.428 35.9467 174.678 36.3287C175.633 36.6239 176.617 36.4445 177.306 35.8541C178.006 35.2522 178.301 34.3088 178.133 33.1976L178.174 33.186ZM150.069 22.1894C150.057 22.2299 149.756 23.1849 148.894 23.7232L148.876 23.7347H148.859C148.859 23.7347 148.466 23.6769 148.303 23.1618H147.702L147.794 23.0807C147.806 23.0749 148.726 22.2589 150.011 22.1315H150.08L150.057 22.1952L150.069 22.1894Z" fill="#6A8A82"/>
<path d="M109.636 8.42704C118.393 8.42704 127.155 9.17944 135.819 10.6842V38.6677C135.819 45.0573 133.001 51.1227 128.122 55.2494L109.642 70.8645L91.1617 55.2494C86.2827 51.1227 83.4641 45.0573 83.4641 38.6677V10.6842C92.1282 9.17944 100.885 8.42704 109.648 8.42704M109.636 5.5332C100.717 5.5332 91.7462 6.30875 82.9605 7.83091L80.5587 8.24762V38.6677C80.5587 40.4618 80.7554 42.256 81.1432 44.0039C81.5252 45.7344 82.0982 47.4244 82.8448 49.0276C83.5914 50.6366 84.5116 52.1645 85.5824 53.5709C86.6647 54.9947 87.909 56.3027 89.2807 57.4602L107.761 73.0754L109.63 74.6554L111.5 73.0754L129.98 57.4602C131.351 56.3027 132.59 54.9947 133.678 53.5709C134.749 52.1645 135.675 50.6366 136.416 49.0276C137.162 47.4186 137.735 45.7286 138.117 44.0039C138.505 42.256 138.702 40.4618 138.702 38.6677V8.24762L136.3 7.83091C127.514 6.30296 118.537 5.5332 109.624 5.5332H109.636Z" fill="#6A8A82"/>
<path d="M176.298 67.7971H116.801V66.1592H174.661C175.563 66.1592 176.298 66.8942 176.298 67.7971Z" fill="#6A8A82"/>
<path d="M102.465 67.7971H42.9677C42.9677 66.8942 43.7027 66.1592 44.6056 66.1592H102.465V67.7971Z" fill="#6A8A82"/>
<path d="M136.67 62.7678H122.062V61.1299H138.308C138.308 62.0328 137.573 62.7678 136.67 62.7678Z" fill="#48794D"/>
<path d="M82.5959 62.7678H97.204V61.1299H80.958C80.958 62.0328 81.693 62.7678 82.5959 62.7678Z" fill="#48794D"/>
<path d="M206.192 1.10545H204.959V5.66035H203.651V1.10545H202.418V0H206.186V1.10545H206.192Z" fill="#6A8A82"/>
<path d="M207.922 5.66035H206.614L207.523 0H208.611L210.017 3.38579L211.424 0H212.512L213.421 5.66035H212.113L211.661 2.28613L210.243 5.66035H209.786L208.368 2.28613L207.916 5.66035H207.922Z" fill="#6A8A82"/>
</g>
<defs>
<clipPath id="clip0_40000075_4104">
<rect width="217.09" height="102.338" fill="white"/>
</clipPath>
</defs>
</svg>
